<?xml version="1.0" encoding="UTF-8" standalone="no"?>
<!-- Created with Inkscape (http://www.inkscape.org/) -->

<svg
   xmlns:dc="http://purl.org/dc/elements/1.1/"
   xmlns:cc="http://creativecommons.org/ns#"
   xmlns:rdf="http://www.w3.org/1999/02/22-rdf-syntax-ns#"
   xmlns:svg="http://www.w3.org/2000/svg"
   xmlns="http://www.w3.org/2000/svg"
   xmlns:inkscape="http://www.inkscape.org/namespaces/inkscape"
   version="1.1"
   width="900.29999"
   height="900"
   id="svg2"
   xml:space="preserve"><metadata
     id="metadata8"><rdf:RDF><cc:Work
         rdf:about=""><dc:format>image/svg+xml</dc:format><dc:type
           rdf:resource="http://purl.org/dc/dcmitype/StillImage" /></cc:Work></rdf:RDF></metadata><defs
     id="defs6" /><g
     transform="matrix(1.25,0,0,-1.25,0,900)"
     id="g10"><g
       transform="scale(0.1,0.1)"
       id="g12"><path
         d="m 0,0 7202.4,0 0,7200 L 0,7200 0,0 z"
         inkscape:connector-curvature="0"
         id="path14"
         style="fill:#f7df1e;fill-opacity:1;fill-rule:nonzero;stroke:none" /><path
         d="m 1891.33,1189.15 550.45,333.12 c 106.19,-188.29 202.8,-347.59 434.51,-347.59 222.11,0 362.14,86.88 362.14,424.84 l 0,2298.29 675.95,0 0,-2307.91 c 0,-700.111 -410.39,-1018.779 -1009.11,-1018.779 -540.74,0 -854.61,280.051 -1013.94,618.029"
         inkscape:connector-curvature="0"
         id="path16"
         style="fill:#2f2e2d;fill-opacity:1;fill-rule:nonzero;stroke:none" /><path
         d="m 4281.38,1261.56 550.38,318.67 c 144.89,-236.59 333.18,-410.42 666.31,-410.42 280.07,0 458.69,140.04 458.69,333.17 0,231.76 -183.46,313.85 -492.47,449.01 l -168.98,72.46 c -487.67,207.59 -811.18,468.31 -811.18,1018.73 0,506.98 386.26,893.25 989.83,893.25 429.7,0 738.72,-149.69 960.79,-540.79 l -526.29,-337.95 c -115.87,207.58 -241.39,289.66 -434.5,289.66 -197.96,0 -323.51,-125.53 -323.51,-289.66 0,-202.81 125.55,-284.9 415.21,-410.43 l 168.98,-72.43 c 574.56,-246.25 898.07,-497.29 898.07,-1062.17 0,-608.398 -477.98,-941.539 -1120.15,-941.539 -627.67,0 -1033.25,299.348 -1231.18,690.439"
         inkscape:connector-curvature="0"
         id="path18"
         style="fill:#2f2e2d;fill-opacity:1;fill-rule:nonzero;stroke:none" /><path
         d="m 1142.06,5790.78 c -44.25,-22.84 -137.01,-45.67 -254.048,-45.67 -271.176,0 -473.848,171.27 -473.848,488.11 0,302.58 204.098,505.25 502.391,505.25 118.465,0 195.535,-25.7 228.355,-42.82 l -31.4,-101.34 c -45.67,22.84 -112.75,39.97 -192.67,39.97 -225.508,0 -375.367,-144.15 -375.367,-396.78 0,-236.92 135.586,-386.78 368.226,-386.78 77.078,0 154.141,15.7 204.101,39.97 l 24.26,-99.91"
         inkscape:connector-curvature="0"
         id="path20"
         style="fill:#231f20;fill-opacity:1;fill-rule:nonzero;stroke:none" /><path
         d="m 1423.15,6247.5 c 27.12,-7.14 61.37,-10 102.76,-10 149.86,0 241.2,74.22 241.2,204.1 0,128.45 -91.34,189.83 -226.92,189.83 -54.24,0 -95.62,-4.29 -117.04,-10 l 0,-373.93 z m -124.17,463.85 c 59.95,9.99 138.45,18.55 238.35,18.55 122.74,0 212.67,-28.55 269.75,-79.92 51.38,-45.67 84.21,-115.61 84.21,-201.24 0,-87.06 -25.69,-155.57 -74.21,-205.52 -67.08,-69.94 -172.71,-105.62 -294.02,-105.62 -37.11,0 -71.36,1.42 -99.91,8.56 l 0,-385.35 -124.17,0 0,950.54"
         inkscape:connector-curvature="0"
         id="path22"
         style="fill:#231f20;fill-opacity:1;fill-rule:nonzero;stroke:none" /><path
         d="m 2182.39,6722.77 0,-402.48 465.28,0 0,402.48 125.6,0 0,-961.96 -125.6,0 0,451.01 -465.28,0 0,-451.01 -125.59,0 0,961.96 125.59,0"
         inkscape:connector-curvature="0"
         id="path24"
         style="fill:#231f20;fill-opacity:1;fill-rule:nonzero;stroke:none" /></g></g></svg>