<?xml version="1.0" encoding="UTF-8" standalone="no"?>
<svg width="505px" height="505px" viewBox="0 0 505 505" version="1.1" xmlns="http://www.w3.org/2000/svg" xmlns:xlink="http://www.w3.org/1999/xlink">
    <!-- Generator: Sketch 39.1 (31720) - http://www.bohemiancoding.com/sketch -->
    <title>Slice 1</title>
    <desc>Created with Sketch.</desc>
    <defs></defs>
    <g id="Page-1" stroke="none" stroke-width="1" fill="none" fill-rule="evenodd">
        <g id="js-cph">
            <polygon id="Fill-1" fill="#FCDE33" points="0 504.502 504.671 504.502 504.671 0 0 0"></polygon>
            <g id="Group-12" transform="translate(132.000000, 106.502000)" fill="#343432">
                <path d="M0.5249,314.6767 L39.0949,291.3347 C46.5359,304.5287 53.3049,315.6907 69.5409,315.6907 C85.1039,315.6907 94.9159,309.6027 94.9159,285.9217 L94.9159,124.8817 L142.2789,124.8817 L142.2789,286.5957 C142.2789,335.6527 113.5239,357.9817 71.5709,357.9817 C33.6819,357.9817 11.6899,338.3587 0.5249,314.6767" id="Fill-2"></path>
                <path d="M167.9946,309.6025 L206.5596,287.2735 C216.7126,303.8515 229.9056,316.0315 253.2486,316.0315 C272.8736,316.0315 285.3886,306.2185 285.3886,292.6865 C285.3886,276.4475 272.5326,270.6955 250.8806,261.2245 L239.0416,256.1475 C204.8696,241.6015 182.2016,223.3325 182.2016,184.7645 C182.2016,149.2415 209.2666,122.1755 251.5586,122.1755 C281.6686,122.1755 303.3196,132.6635 318.8816,160.0675 L282.0046,183.7485 C273.8846,169.2035 265.0906,163.4515 251.5586,163.4515 C237.6866,163.4515 228.8896,172.2475 228.8896,183.7485 C228.8896,197.9585 237.6866,203.7105 257.9836,212.5075 L269.8236,217.5815 C310.0846,234.8365 332.7526,252.4275 332.7526,292.0085 C332.7526,334.6385 299.2596,357.9815 254.2646,357.9815 C210.2826,357.9815 181.8636,337.0065 167.9946,309.6025" id="Fill-4"></path>
                <path d="M94.3962,40.7454 C94.3962,16.5754 112.5832,0.2654 136.1682,0.2654 C153.2992,0.2654 163.2732,9.5344 168.7872,19.3914 L154.4712,26.4304 C151.1872,20.0944 144.1462,15.0494 136.1682,15.0494 C121.8532,15.0494 111.5272,25.9614 111.5272,40.7454 C111.5272,55.5294 121.8532,66.4424 136.1682,66.4424 C144.1462,66.4424 151.1872,61.3964 154.4712,55.0604 L168.7872,61.9834 C163.2732,71.7214 153.2992,81.2254 136.1682,81.2254 C112.5832,81.2254 94.3962,64.7994 94.3962,40.7454" id="Fill-6"></path>
                <path d="M224.642,26.7824 C224.642,20.2124 219.597,16.2224 213.025,16.2224 L195.426,16.2224 L195.426,37.2264 L213.025,37.2264 C219.597,37.2264 224.642,33.2364 224.642,26.7824 L224.642,26.7824 Z M178.764,79.8184 L178.764,1.5564 L215.373,1.5564 C232.386,1.5564 241.656,13.0544 241.656,26.7824 C241.656,40.3934 232.268,51.8924 215.373,51.8924 L195.426,51.8924 L195.426,79.8184 L178.764,79.8184 Z" id="Fill-8"></path>
                <polygon id="Fill-10" points="305.7256 79.8181 305.7256 46.8471 268.7636 46.8471 268.7636 79.8181 252.1026 79.8181 252.1026 1.5561 268.7636 1.5561 268.7636 32.2971 305.7256 32.2971 305.7256 1.5561 322.5036 1.5561 322.5036 79.8181"></polygon>
            </g>
        </g>
    </g>
</svg>