<?xml version="1.0" ?><svg baseProfile="tiny" height="68px" id="Layer_1" version="1.2" viewBox="0 0 410.412 68" width="410.412px" xml:space="preserve" xmlns="http://www.w3.org/2000/svg" xmlns:xlink="http://www.w3.org/1999/xlink"><g><path d="M90.656,54.543h-9.362V16.015h9.362V54.543z" fill="#010101"/><path d="M128.641,17.462l-0.664,8.153c-2.539-1.609-5.598-2.415-9.181-2.415c-3.583,0-6.583,1.118-8.999,3.352   s-3.622,5.143-3.622,8.726c0,3.585,1.226,6.482,3.684,8.696c2.455,2.214,5.533,3.322,9.239,3.322c3.986,0,7.146-0.765,9.48-2.295   l-0.785,8.394c-2.336,1.369-5.698,2.055-10.084,2.055c-2.577,0-5.104-0.445-7.581-1.33c-2.474-0.885-4.72-2.143-6.733-3.773   c-2.012-1.632-3.634-3.755-4.86-6.373c-1.229-2.617-1.843-5.515-1.843-8.696c0-4.227,1.066-7.91,3.202-11.051   c2.133-3.141,4.759-5.445,7.88-6.914c3.118-1.47,6.431-2.205,9.935-2.205C122.298,15.107,125.942,15.892,128.641,17.462z" fill="#010101"/><path d="M173.992,35.219c0,5.998-2.063,10.868-6.189,14.613c-4.128,3.745-8.989,5.618-14.584,5.618   c-5.556,0-10.399-1.873-14.525-5.618c-4.126-3.745-6.189-8.615-6.189-14.613c0-5.92,2.063-10.751,6.189-14.496   c4.126-3.742,8.969-5.615,14.525-5.615c3.583,0,6.944,0.807,10.084,2.416c3.141,1.609,5.706,3.977,7.699,7.097   C172.995,27.738,173.992,31.271,173.992,35.219z M164.509,35.219c0-3.463-1.125-6.313-3.381-8.547   c-2.256-2.233-4.89-3.352-7.91-3.352c-3.02,0-5.647,1.118-7.88,3.352c-2.237,2.233-3.353,5.084-3.353,8.547   c0,3.501,1.116,6.369,3.353,8.605c2.233,2.232,4.86,3.352,7.88,3.352c3.02,0,5.654-1.119,7.91-3.352   C163.384,41.588,164.509,38.72,164.509,35.219z" fill="#010101"/><path d="M215.601,54.965h-4.711l-14.977-16.427c-2.093-2.296-4.489-5.11-7.188-8.454l-0.12,0.061   c0.12,2.74,0.182,5.436,0.182,8.092v16.307h-9.359V16.015h7.549l13.043,14.372c2.455,2.695,4.548,5.153,6.28,7.367l0.121-0.062   c-0.121-2.294-0.182-4.688-0.182-7.185V16.015h9.362V54.965z" fill="#010101"/><path d="M245.25,23.684h-13.647v7.67h11.232v7.789h-11.232v15.401h-9.359V16.015h23.007V23.684z" fill="#010101"/><path d="M259.441,54.543h-9.362V16.015h9.362V54.543z" fill="#010101"/><path d="M302.861,54.965h-4.71l-14.978-16.427c-2.094-2.296-4.488-5.11-7.188-8.454l-0.119,0.061   c0.119,2.74,0.182,5.436,0.182,8.092v16.307h-9.36V16.015h7.549l13.043,14.372c2.455,2.695,4.549,5.153,6.281,7.367l0.12-0.062   c-0.12-2.294-0.183-4.688-0.183-7.185V16.015h9.362V54.965z" fill="#010101"/><path d="M337.13,21.269c4.006,3.501,6.011,8.173,6.011,14.009c0,5.838-2.005,10.508-6.011,14.011   c-4.006,3.501-8.888,5.255-14.643,5.255h-12.984V16.015h12.984C328.243,16.015,333.125,17.765,337.13,21.269z M330.248,43.58   c2.354-1.951,3.531-4.718,3.531-8.303c0-3.583-1.178-6.35-3.531-8.303c-2.356-1.951-5.305-2.93-8.849-2.93h-2.897V46.51h2.897   C324.943,46.51,327.891,45.533,330.248,43.58z" fill="#010101"/><path d="M372.73,54.543h-24.156V16.015h22.465v7.669h-13.105v7.67h10.689v7.789h-10.689v7.73h14.797V54.543z" fill="#010101"/><path d="M410.412,54.543h-10.449l-10.386-15.161h-3.32v15.161h-8.998V16.015h14.371   c3.421,0,6.351,1.066,8.788,3.199c2.436,2.136,3.651,4.952,3.651,8.456c0,2.172-0.563,4.125-1.69,5.857   c-1.127,1.73-2.535,2.998-4.227,3.805L410.412,54.543z M395.073,27.67c0-1.369-0.475-2.426-1.421-3.173   c-0.945-0.745-2.083-1.115-3.41-1.115h-3.985v8.635h3.985c1.327,0,2.465-0.371,3.41-1.118   C394.598,30.156,395.073,29.078,395.073,27.67z" fill="#010101"/></g><g><path d="M30.107,29.246c1.73,0.605,2.97,2.251,2.97,4.188c0,2.455-1.985,4.438-4.438,4.438   c-1.937,0-3.583-1.238-4.188-2.971c-0.543,1.277-0.842,2.682-0.842,4.154c0,5.886,4.77,10.652,10.651,10.652   c5.883,0,10.652-4.767,10.652-10.652c0-5.881-4.769-10.652-10.652-10.652C32.788,28.404,31.383,28.705,30.107,29.246z" fill="#010101"/><path d="M25.394,13.319l0.005-0.005c3.751-2.732,8.372-4.346,13.371-4.346c2.793,0,5.449,0.435,7.917,1.361   c0.16,0.057,0.372,0.095,0.468,0.095c0.588,0,1.022-0.405,1.025-0.978c0.001-0.391-0.192-0.715-0.441-0.946   C41.202,2.484,34.26,0,34.26,0C18.768,6.194,7.375,21.179,7.048,38.301c-0.14,4.871,1.023,9.838,3.639,14.366   c1.552,2.689,3.494,5.012,5.71,6.939c-4.242-1.885-7.947-5.08-10.447-9.408c-1.397-2.419-2.35-4.938-2.781-7.536   c-0.029-0.168-0.103-0.369-0.151-0.453c-0.294-0.511-0.861-0.684-1.359-0.397c-0.34,0.192-0.523,0.522-0.596,0.854   c-1.946,8.669-0.625,15.923-0.625,15.923C13.74,69.059,32.771,71.35,47.873,62.631c7.103-4.104,11.66-10.92,13.111-18.388   l0.004,0.01c0.489,4.618-0.425,9.423-2.924,13.753c-1.396,2.418-3.099,4.504-5.135,6.178c-0.131,0.107-0.269,0.273-0.317,0.355   c-0.294,0.508-0.161,1.09,0.334,1.377c0.338,0.197,0.714,0.189,1.038,0.09c8.481-2.65,14.103-7.422,14.103-7.422   c2.375-16.464-4.857-33.773-19.435-42.639C41.806,11.691,33.251,10.602,25.394,13.319z M56.408,34.004   c0.22,1.091,0.341,2.214,0.341,3.355c0,10.745-10.068,19.45-22.488,19.45c-12.42,0-22.487-8.705-22.487-19.45   c0-1.142,0.121-2.265,0.34-3.355c4.667-4.785,12.838-7.966,22.147-7.966C43.569,26.038,51.74,29.219,56.408,34.004z" fill="#010101"/></g></svg>